<svg width="87" height="87" viewBox="0 0 87 87" fill="none" xmlns="http://www.w3.org/2000/svg">
<path d="M43.5 87C67.5244 87 87 67.5244 87 43.5C87 19.4756 67.5244 0 43.5 0C19.4756 0 0 19.4756 0 43.5C0 67.5244 19.4756 87 43.5 87Z" fill="#FFC200"/>
<path fill-rule="evenodd" clip-rule="evenodd" d="M74.0301 74.4821C65.8209 82.5737 54.7353 87.0756 43.2088 86.9988C31.6824 86.922 20.6578 82.2727 12.5571 74.0724C13.5931 71.2075 15.6053 68.7991 18.2403 67.2701C20.0162 65.9571 21.942 64.8598 23.9769 64.0013C20.8827 53.3684 29.2941 48.1414 32.5122 46.6365C32.5122 51.5454 37.1086 48.2878 42.8129 48.3497C47.5092 48.4018 56.7962 53.1291 56.7962 46.8927C61.9627 48.4215 67.5938 58.2674 63.7182 64.3166C65.3072 65.0936 66.8085 66.0384 68.1963 67.135C70.9095 68.8615 72.964 71.448 74.0301 74.4821Z" fill="#677079"/>
<path fill-rule="evenodd" clip-rule="evenodd" d="M33.8313 54.4524L54.8352 54.5791V59.4176L54.8253 59.4922C54.8108 59.7114 54.7778 59.9289 54.7268 60.1426L54.6564 60.6226L54.6142 60.7226C53.2543 67.8656 47.3036 70.6262 43.6294 72.5492C39.758 70.4404 34.2846 66.6408 33.8496 59.9188L33.8313 59.8357V59.5541C33.8283 59.457 33.8264 59.3599 33.8257 59.2627C33.8257 59.3134 33.8299 59.3613 33.8313 59.412V54.4524Z" fill="#F9DCA4"/>
<path opacity="0.11" fill-rule="evenodd" clip-rule="evenodd" d="M54.8368 54.3636V60.0018C54.8327 60.5244 54.788 61.0459 54.7031 61.5616C54.5965 62.1999 54.417 62.8238 54.1681 63.4212C46.8703 68.9326 35.2421 64.4123 33.3853 54.9986L54.8368 54.3636Z" fill="black"/>
<path fill-rule="evenodd" clip-rule="evenodd" d="M25.4861 35.525C18.5317 37.3129 24.4443 45.7876 28.8183 45.751C27.0544 42.5909 25.9226 39.1177 25.4861 35.525ZM61.7121 35.525C68.6665 37.3129 62.7539 45.7876 58.3786 45.7496C60.1429 42.5901 61.2752 39.1173 61.7121 35.525Z" fill="#F9DCA4"/>
<path fill-rule="evenodd" clip-rule="evenodd" d="M43.2647 15.9937C72.1563 15.9937 60.897 61.6701 43.2647 61.6701C26.6108 61.6701 14.3731 15.9937 43.2647 15.9937Z" fill="#FFE8BE"/>
<path fill-rule="evenodd" clip-rule="evenodd" d="M29.6293 31.1187C29.8758 31.3889 30.0586 31.7108 30.1642 32.0609C30.2699 32.4111 30.2957 32.7804 30.2398 33.1418C30.1838 33.5032 30.0476 33.8475 29.8411 34.1493C29.6346 34.4511 29.3631 34.7028 29.0465 34.8859C27.0052 36.5653 26.9306 42.4217 26.9306 42.4217C26.1423 41.6389 26.1606 37.4466 24.4515 35.0238C22.7425 32.6011 21.591 15.6487 31.1483 9.48413C30.561 10.1749 30.1377 10.9897 29.9102 11.8674C29.6828 12.7452 29.657 13.663 29.8348 14.5521C29.8348 14.5521 36.4739 5.03136 47.4882 5.30587C46.615 5.782 45.8519 6.43676 45.2487 7.22751C44.6455 8.01825 44.2156 8.92722 43.9871 9.89519C43.9871 9.89519 53.6162 5.92248 61.6405 10.6483C59.5543 11.225 57.5811 12.1518 55.8053 13.3893C59.702 13.4963 63.4678 14.2199 66.3073 16.7454C65.6962 16.9416 65.1306 17.2583 64.6439 17.6767C64.1573 18.0951 63.7594 18.6069 63.4739 19.1817C63.1883 19.7565 63.0208 20.3827 62.9813 21.0233C62.9419 21.6639 63.0312 22.3059 63.244 22.9114C64.449 27.8428 64.5616 32.4307 63.3946 34.8971C62.2276 37.3635 61.6771 35.7714 60.9465 40.9435C60.9107 41.2929 60.7941 41.6292 60.606 41.9258C60.4179 42.2224 60.1633 42.4712 59.8625 42.6525C59.8344 43.027 60.4003 37.365 58.9404 35.8572C57.482 34.3509 58.3984 32.4997 58.9812 31.4045C63.0497 23.7645 50.8655 20.3028 44.2053 20.3113C38.4293 20.3183 24.4966 22.9438 29.6293 31.1187Z" fill="#8A5C42"/>
<path fill-rule="evenodd" clip-rule="evenodd" d="M27.8599 69.2087C27.9021 69.2622 42.526 88.1896 59.7176 68.9271C57.6412 74.6314 48.685 79.1616 43.5621 79.1475C33.7781 79.1194 28.3638 71.264 27.8599 69.2087Z" fill="#434955"/>
<path fill-rule="evenodd" clip-rule="evenodd" d="M51.1526 86.3285C50.5754 86.4298 49.9954 86.5185 49.4112 86.5988V74.0176C49.4326 73.8068 49.5356 73.6129 49.6982 73.4771C49.8608 73.3414 50.07 73.2746 50.2812 73.2912C50.4926 73.2742 50.7022 73.3408 50.8651 73.4766C51.028 73.6124 51.1312 73.8066 51.1526 74.0176V86.3285ZM37.3283 86.5622C36.7446 86.4786 36.1641 86.3848 35.5869 86.2806V74.0176C35.6083 73.8068 35.7113 73.6129 35.8739 73.4771C36.0365 73.3414 36.2458 73.2746 36.4569 73.2912C36.6685 73.2738 36.8785 73.3402 37.0417 73.4761C37.2049 73.6119 37.3083 73.8063 37.3297 74.0176L37.3283 86.5622Z" fill="#E6E6E6"/>
</svg>
